<svg width="113" height="113" viewBox="0 0 113 113" fill="none" xmlns="http://www.w3.org/2000/svg">
<circle cx="56.5" cy="56.5" r="56" fill="#131212" stroke="black"/>
<path fill-rule="evenodd" clip-rule="evenodd" d="M62.7914 28.3613C63.3644 27.8676 64.1101 27.8517 64.7623 28.4891C68.5651 32.2068 73.7479 42.2888 74.2689 57.7251C74.3295 59.5208 73.6647 61.2798 72.3709 62.0708C71.4318 62.6449 70.1153 63.3046 68.4214 63.8168L69.9196 77.6249C70.0932 79.225 69.9471 80.7862 69.4305 82.0753C68.9088 83.3773 68.0235 84.3622 66.7883 84.8097C64.4757 85.6474 61.8892 83.6424 61.8892 80.3077V30.7143C61.8892 29.718 62.2377 28.8383 62.7914 28.3613ZM39.0134 31.684C39.2781 29.6228 40.6449 28.1917 42.2084 28.1917H42.4872C42.6177 28.1917 42.7425 28.2619 42.8327 28.3861C42.9228 28.5103 42.9704 28.6777 42.9645 28.8493L42.5402 41.1406C42.5102 42.0083 43.0202 42.7436 43.6791 42.7831C44.3382 42.8225 44.8967 42.1511 44.9266 41.2834L45.3579 28.7922C45.3695 28.4562 45.5798 28.1917 45.8352 28.1917H48.3206C48.5761 28.1917 48.7864 28.4562 48.7979 28.7922L49.2292 41.2834C49.2591 42.1511 49.8176 42.8225 50.4767 42.7831C51.1356 42.7436 51.6456 42.0083 51.6156 41.1406L51.1914 28.8493C51.1854 28.6777 51.233 28.5103 51.3231 28.3861C51.4133 28.2619 51.5381 28.1917 51.6686 28.1917H51.9469C53.51 28.1917 54.8766 29.6222 55.1417 31.6828C55.584 35.1218 56.2036 41.1365 56.1538 47.5684C56.1262 51.1415 54.3098 54.3531 51.4587 55.1946C51.0431 55.3171 50.6061 55.4307 50.1523 55.5284L51.9124 77.6024C52.176 80.9084 50.6124 84.231 48.0097 84.7079C47.6735 84.7695 47.3521 84.8096 47.0783 84.8096C46.8046 84.8096 46.4832 84.7695 46.147 84.7079C43.5443 84.231 41.9807 80.9084 42.2443 77.6024L44.0044 55.5282C43.5507 55.4306 43.1137 55.3171 42.6982 55.1944C39.847 54.3531 38.0305 51.1412 38.0028 47.5682C37.9531 41.137 38.5717 35.1231 39.0134 31.684Z" fill="#828282" fill-opacity="0.18"/>
<path d="M16.5944 71C16.5944 71 12.6913 43 24.8886 43C33.6 43 38.3143 59.7694 38.3143 59.7694C38.3143 59.7694 42.0857 43 51.2349 43C63.4323 43 59.3402 71 59.3402 71" stroke="#F97316" stroke-width="2" stroke-linecap="round"/>
<path d="M72.1437 39C73.5938 45.7202 74.5604 49.2003 72.1437 64.8007C69.727 80.4011 98.5948 72.6009 97.9906 67.2008" stroke="#F97316" stroke-width="2" stroke-linecap="round"/>
<circle cx="71" cy="38" r="5" fill="#F97316"/>
</svg>
