<svg width="135" height="135" viewBox="0 0 135 135" fill="none" xmlns="http://www.w3.org/2000/svg">
<g clip-path="url(#clip0_34_162)">
<rect width="135" height="135" rx="34" fill="url(#paint0_linear_34_162)"/>
<g clip-path="url(#clip1_34_162)">
<path fill-rule="evenodd" clip-rule="evenodd" d="M137.775 106.18C140.382 107.768 143.774 107.819 146.74 105.768C164.038 93.8099 187.612 61.3805 189.98 11.7295C190.256 5.95376 187.231 0.295898 181.346 -2.24818C177.075 -4.09463 171.086 -6.21621 163.381 -7.86344L170.194 -52.2775C170.984 -57.424 170.319 -62.4457 167.969 -66.5921C165.595 -70.7797 161.569 -73.9475 155.95 -75.3868C145.43 -78.0808 133.666 -71.6313 133.666 -60.9055L133.671 98.6117C133.672 101.816 135.257 104.646 137.775 106.18ZM29.6154 95.496C30.8198 102.126 37.0372 106.729 44.149 106.729L45.4174 106.729C46.0109 106.729 46.5785 106.503 46.9886 106.103C47.3986 105.703 47.6153 105.165 47.5883 104.613L45.6569 65.0785C45.5205 62.2874 47.8401 59.9223 50.8375 59.7951C53.8353 59.6684 56.376 61.8277 56.5121 64.6188L58.4751 104.797C58.5278 105.877 59.4845 106.728 60.6463 106.728L71.9519 106.728C73.1137 106.728 74.0704 105.877 74.123 104.796L76.0832 64.6182C76.2192 61.827 78.7597 59.6675 81.7576 59.7941C84.755 59.9211 87.0749 62.286 86.9385 65.0771L85.0099 104.612C84.983 105.164 85.1995 105.702 85.6094 106.102C86.0197 106.501 86.5874 106.727 87.1807 106.727L88.4469 106.727C95.557 106.727 101.773 102.125 102.979 95.4974C104.99 84.4357 107.808 65.0894 107.581 44.4013C107.455 32.9085 99.1918 22.5787 86.2232 19.8726C84.3329 19.4785 82.3447 19.1131 80.2805 18.7991L88.2845 -52.2023C89.483 -62.8359 82.3702 -73.5227 70.5313 -75.0565C69.0022 -75.2543 67.5399 -75.3834 66.2946 -75.3833C65.0498 -75.3833 63.5876 -75.2541 62.0584 -75.0562C50.2196 -73.5216 43.1074 -62.8343 44.3068 -52.2008L52.3157 18.8005C50.2519 19.1146 48.2641 19.4797 46.3743 19.8743C33.405 22.5809 25.1423 32.9121 25.017 44.4049C24.7913 65.0906 27.6059 84.4342 29.6154 95.496Z" fill="white"/>
</g>
</g>
<defs>
<linearGradient id="paint0_linear_34_162" x1="67.5" y1="0" x2="67.5" y2="135" gradientUnits="userSpaceOnUse">
<stop stop-color="#F97316"/>
<stop offset="1" stop-color="#FF4800"/>
</linearGradient>
<clipPath id="clip0_34_162">
<rect width="135" height="135" rx="34" fill="white"/>
</clipPath>
<clipPath id="clip1_34_162">
<rect width="118" height="168" fill="white" transform="translate(-6 -61)"/>
</clipPath>
</defs>
</svg>
