<svg width="138" height="138" viewBox="0 0 138 138" fill="none" xmlns="http://www.w3.org/2000/svg">
<circle cx="69" cy="69" r="68.5" fill="#131212" stroke="black"/>
<path fill-rule="evenodd" clip-rule="evenodd" d="M76.7058 36.4184C77.3694 35.8467 78.2327 35.8282 78.9879 36.5664C83.3912 40.871 89.3923 52.5449 89.9956 70.4186C90.0657 72.4977 89.296 74.5345 87.7979 75.4504C86.7106 76.1152 85.1861 76.879 83.2248 77.4721L84.9595 93.4605C85.1605 95.3131 84.9914 97.1209 84.3932 98.6135C83.7891 100.121 82.7641 101.261 81.3339 101.78C78.656 102.75 75.6612 100.428 75.6612 96.5669V39.1428C75.6612 37.9893 76.0647 36.9706 76.7058 36.4184ZM49.1734 40.2657C49.4799 37.8791 51.0625 36.2219 52.8729 36.2219H53.1957C53.3468 36.2219 53.4913 36.3033 53.5957 36.4471C53.7001 36.5909 53.7552 36.7847 53.7484 36.9834L53.2571 51.2154C53.2224 52.2202 53.8128 53.0715 54.5759 53.1173C55.339 53.1629 55.9857 52.3855 56.0203 51.3807L56.5197 36.9173C56.533 36.5282 56.7766 36.2219 57.0723 36.2219H59.9502C60.246 36.2219 60.4895 36.5282 60.5029 36.9173L61.0022 51.3807C61.0368 52.3855 61.6836 53.1629 62.4467 53.1173C63.2097 53.0715 63.8002 52.2202 63.7655 51.2154L63.2742 36.9834C63.2673 36.7847 63.3224 36.5909 63.4268 36.4471C63.5312 36.3033 63.6757 36.2219 63.8268 36.2219H64.1491C65.959 36.2219 67.5413 37.8783 67.8483 40.2643C68.3604 44.2463 69.0779 51.2107 69.0202 58.6582C68.9882 62.7954 66.885 66.5141 63.5838 67.4884C63.1026 67.6303 62.5965 67.7619 62.071 67.8749L64.1091 93.4344C64.4143 97.2623 62.6038 101.11 59.5902 101.662C59.2009 101.733 58.8287 101.78 58.5117 101.78C58.1948 101.78 57.8226 101.733 57.4334 101.662C54.4197 101.11 52.6092 97.2623 52.9144 93.4344L54.9525 67.8748C54.4271 67.7617 53.9211 67.6303 53.4401 67.4883C50.1387 66.5141 48.0353 62.7951 48.0033 58.6579C47.9457 51.2113 48.6619 44.2478 49.1734 40.2657Z" fill="#828282" fill-opacity="0.18"/>
<path d="M110.908 88.456C110.548 88.456 110.16 88.412 109.744 88.324C108.952 88.156 108.3 87.904 107.788 87.568C107.276 87.232 106.896 86.848 106.648 86.416C106.4 85.984 106.276 85.54 106.276 85.084C106.276 84.564 106.428 84.056 106.732 83.56C107.036 83.064 107.484 82.632 108.076 82.264C108.668 81.888 109.388 81.628 110.236 81.484C110.668 81.412 111.128 81.376 111.616 81.376C111.984 81.376 112.336 81.4 112.672 81.448C113.008 81.488 113.296 81.548 113.536 81.628C113.784 81.708 113.952 81.812 114.04 81.94C114.08 81.988 114.1 82.056 114.1 82.144C114.1 82.256 114.072 82.352 114.016 82.432C114.32 82.544 114.604 82.708 114.868 82.924C115.132 83.132 115.34 83.38 115.492 83.668C115.652 83.956 115.732 84.276 115.732 84.628C115.732 84.964 115.652 85.304 115.492 85.648C115.244 86.168 114.892 86.64 114.436 87.064C113.988 87.488 113.464 87.824 112.864 88.072C112.264 88.328 111.612 88.456 110.908 88.456ZM110.596 88.06C111.204 88.06 111.772 87.944 112.3 87.712C112.828 87.472 113.292 87.156 113.692 86.764C114.092 86.364 114.4 85.928 114.616 85.456C114.704 85.272 114.764 85.096 114.796 84.928C114.836 84.76 114.856 84.6 114.856 84.448C114.856 84.024 114.732 83.668 114.484 83.38C114.244 83.092 113.944 82.876 113.584 82.732C113.232 82.58 112.88 82.504 112.528 82.504C112.192 82.504 111.908 82.568 111.676 82.696C111.596 82.736 111.528 82.756 111.472 82.756C111.376 82.756 111.328 82.724 111.328 82.66C111.328 82.636 111.392 82.612 111.52 82.588C111.656 82.564 111.824 82.54 112.024 82.516C112.224 82.484 112.428 82.456 112.636 82.432C112.852 82.408 113.036 82.388 113.188 82.372C113.348 82.348 113.452 82.328 113.5 82.312C113.396 82.304 113.296 82.296 113.2 82.288C113.104 82.28 113.088 82.276 113.152 82.276H113.164C113.404 82.276 113.524 82.284 113.524 82.3C113.524 82.3 113.516 82.304 113.5 82.312C113.58 82.32 113.64 82.328 113.68 82.336V82.264C113.68 82.072 113.536 81.928 113.248 81.832C112.968 81.736 112.628 81.688 112.228 81.688C111.98 81.688 111.712 81.708 111.424 81.748C111.144 81.78 110.864 81.836 110.584 81.916C109.832 82.124 109.224 82.404 108.76 82.756C108.296 83.1 107.96 83.484 107.752 83.908C107.544 84.324 107.44 84.744 107.44 85.168C107.44 85.592 107.532 86 107.716 86.392C107.9 86.776 108.156 87.108 108.484 87.388C108.82 87.66 109.204 87.848 109.636 87.952C109.964 88.024 110.284 88.06 110.596 88.06ZM120.461 88.624C120.357 88.624 120.257 88.62 120.161 88.612C120.065 88.612 119.969 88.608 119.873 88.6C119.297 88.536 118.777 88.388 118.313 88.156C117.857 87.924 117.493 87.62 117.221 87.244C116.949 86.868 116.813 86.44 116.813 85.96C116.813 85.648 116.877 85.324 117.005 84.988C117.181 84.548 117.449 84.112 117.809 83.68C118.169 83.24 118.669 82.828 119.309 82.444C119.957 82.052 120.793 81.704 121.817 81.4C122.345 81.24 122.805 81.128 123.197 81.064C123.589 81 123.929 80.968 124.217 80.968C124.625 80.968 124.941 81.02 125.165 81.124C125.397 81.22 125.573 81.34 125.693 81.484C125.821 81.62 125.925 81.756 126.005 81.892C126.037 81.948 126.053 82.016 126.053 82.096C126.053 82.24 126.009 82.38 125.921 82.516C125.833 82.652 125.753 82.72 125.681 82.72C125.601 82.72 125.561 82.632 125.561 82.456C125.561 82.288 125.473 82.168 125.297 82.096C125.121 82.016 124.889 81.976 124.601 81.976C124.281 81.976 123.913 82.02 123.497 82.108C123.081 82.188 122.661 82.296 122.237 82.432C121.141 82.792 120.273 83.176 119.633 83.584C119.001 83.984 118.549 84.388 118.277 84.796C118.005 85.196 117.869 85.58 117.869 85.948C117.869 86.34 117.981 86.692 118.205 87.004C118.429 87.316 118.713 87.572 119.057 87.772C119.401 87.964 119.749 88.076 120.101 88.108C120.341 88.132 120.581 88.144 120.821 88.144C121.357 88.144 121.881 88.096 122.393 88C122.913 87.896 123.385 87.752 123.809 87.568C124.233 87.384 124.569 87.168 124.817 86.92C125.049 86.688 125.233 86.524 125.369 86.428C125.513 86.332 125.613 86.284 125.669 86.284C125.717 86.284 125.741 86.308 125.741 86.356C125.741 86.492 125.625 86.676 125.393 86.908C125.137 87.172 124.817 87.412 124.433 87.628C124.049 87.836 123.629 88.012 123.173 88.156C122.725 88.308 122.265 88.424 121.793 88.504C121.329 88.584 120.885 88.624 120.461 88.624Z" fill="white"/>
<path d="M16.4863 74C16.4863 74 13.2929 51 23.2725 51C30.4 51 34.2571 64.7749 34.2571 64.7749C34.2571 64.7749 37.3429 51 44.8285 51C54.8082 51 51.4602 74 51.4602 74" stroke="#F97316" stroke-width="2" stroke-linecap="round"/>
<path d="M55.888 80.624C55.8 80.624 55.712 80.62 55.624 80.612C55.544 80.612 55.46 80.608 55.372 80.6C54.684 80.528 54.152 80.4 53.776 80.216C53.408 80.032 53.16 79.756 53.032 79.388C52.904 79.012 52.848 78.512 52.864 77.888C52.872 77.8 52.884 77.708 52.9 77.612C52.924 77.508 52.936 77.404 52.936 77.3H52.828C52.756 77.3 52.704 77.268 52.672 77.204C52.648 77.132 52.636 77.048 52.636 76.952C52.636 76.832 52.656 76.716 52.696 76.604C52.744 76.492 52.796 76.436 52.852 76.436C52.892 76.436 52.94 76.428 52.996 76.412C53.06 76.396 53.132 76.388 53.212 76.388C53.38 75.956 53.612 75.528 53.908 75.104C54.204 74.68 54.564 74.296 54.988 73.952C55.42 73.608 55.92 73.352 56.488 73.184C56.992 73.04 57.464 72.968 57.904 72.968C58.352 72.968 58.74 73.032 59.068 73.16C59.404 73.28 59.628 73.44 59.74 73.64C59.772 73.696 59.788 73.76 59.788 73.832C59.788 73.952 59.748 74.064 59.668 74.168C59.596 74.272 59.52 74.324 59.44 74.324C59.344 74.324 59.296 74.224 59.296 74.024C59.296 73.568 58.964 73.34 58.3 73.34C58.1 73.34 57.872 73.364 57.616 73.412C57.368 73.452 57.092 73.524 56.788 73.628C56.492 73.724 56.184 73.9 55.864 74.156C55.552 74.412 55.256 74.716 54.976 75.068C54.704 75.42 54.472 75.796 54.28 76.196L54.388 76.184C54.644 76.152 54.94 76.132 55.276 76.124C55.612 76.108 55.952 76.1 56.296 76.1C56.72 76.1 57.12 76.108 57.496 76.124C57.88 76.14 58.192 76.164 58.432 76.196C58.672 76.228 58.792 76.264 58.792 76.304C58.792 76.352 58.592 76.4 58.192 76.448C57.52 76.528 56.808 76.636 56.056 76.772C55.312 76.908 54.608 77.032 53.944 77.144C53.92 77.28 53.9 77.416 53.884 77.552C53.868 77.688 53.864 77.824 53.872 77.96C53.904 78.52 54.056 78.984 54.328 79.352C54.6 79.72 54.976 79.948 55.456 80.036C55.584 80.06 55.712 80.076 55.84 80.084C55.976 80.092 56.112 80.096 56.248 80.096C56.608 80.096 56.968 80.064 57.328 80C57.688 79.936 58.02 79.852 58.324 79.748C58.636 79.636 58.896 79.512 59.104 79.376C59.312 79.232 59.44 79.08 59.488 78.92C59.544 78.752 59.608 78.616 59.68 78.512C59.752 78.408 59.82 78.356 59.884 78.356C60.004 78.356 60.064 78.54 60.064 78.908C60.064 79.148 59.932 79.372 59.668 79.58C59.404 79.78 59.06 79.96 58.636 80.12C58.212 80.28 57.756 80.404 57.268 80.492C56.788 80.58 56.328 80.624 55.888 80.624ZM63.0245 80.264C62.6245 80.264 62.2805 80.256 61.9925 80.24C61.7045 80.224 61.5205 80.208 61.4405 80.192C61.0245 80.104 60.7285 80.02 60.5525 79.94C60.3845 79.852 60.3005 79.78 60.3005 79.724C60.3005 79.668 60.3525 79.624 60.4565 79.592C60.5605 79.552 60.6805 79.532 60.8165 79.532C60.8885 79.532 60.9605 79.54 61.0325 79.556C61.1045 79.564 61.1765 79.576 61.2485 79.592C61.3285 79.616 61.4285 79.632 61.5485 79.64C61.6765 79.648 61.8205 79.652 61.9805 79.652C62.3005 79.652 62.6645 79.636 63.0725 79.604C63.4805 79.564 63.8925 79.508 64.3085 79.436C64.7325 79.364 65.1245 79.284 65.4845 79.196C65.8445 79.1 66.1325 78.996 66.3485 78.884C66.5725 78.772 66.6845 78.652 66.6845 78.524C66.6845 78.468 66.6525 78.408 66.5885 78.344C66.4605 78.216 66.3005 78.108 66.1085 78.02C65.9245 77.932 65.6925 77.836 65.4125 77.732C65.1405 77.62 64.8045 77.48 64.4045 77.312C64.0125 77.136 63.5445 76.904 63.0005 76.616C62.6645 76.432 62.3725 76.244 62.1245 76.052C61.8765 75.86 61.7525 75.644 61.7525 75.404C61.7525 75.276 61.7925 75.144 61.8725 75.008C61.9605 74.864 62.1005 74.712 62.2925 74.552C62.7485 74.168 63.2525 73.864 63.8045 73.64C64.3565 73.416 64.9165 73.256 65.4845 73.16C66.0525 73.064 66.5845 73.016 67.0805 73.016C67.6485 73.016 68.1365 73.064 68.5445 73.16C68.9605 73.248 69.2245 73.36 69.3365 73.496C69.4165 73.584 69.4565 73.724 69.4565 73.916C69.4565 74.108 69.4205 74.316 69.3485 74.54C69.2765 74.756 69.1885 74.944 69.0845 75.104C68.9885 75.264 68.8965 75.348 68.8085 75.356C68.6085 75.364 68.4805 75.312 68.4245 75.2C68.3685 75.08 68.3405 74.932 68.3405 74.756C68.3405 74.66 68.3445 74.56 68.3525 74.456C68.3605 74.352 68.3645 74.252 68.3645 74.156C68.3645 73.996 68.3445 73.856 68.3045 73.736C68.2725 73.616 68.1925 73.528 68.0645 73.472C67.8405 73.376 67.5525 73.328 67.2005 73.328C66.8165 73.328 66.4045 73.384 65.9645 73.496C65.5325 73.608 65.1445 73.768 64.8005 73.976C64.6565 74.064 64.4925 74.192 64.3085 74.36C64.1325 74.52 63.9765 74.708 63.8405 74.924C63.7045 75.132 63.6365 75.356 63.6365 75.596C63.6365 75.804 63.7045 76.02 63.8405 76.244C63.9845 76.468 64.2285 76.688 64.5725 76.904C64.8605 77.08 65.1685 77.24 65.4965 77.384C65.8325 77.528 66.1525 77.664 66.4565 77.792C66.7685 77.912 67.0365 78.028 67.2605 78.14C67.4845 78.252 67.6325 78.368 67.7045 78.488C67.8085 78.648 67.8605 78.804 67.8605 78.956C67.8605 79.172 67.7565 79.356 67.5485 79.508C67.3405 79.66 67.0605 79.788 66.7085 79.892C66.3645 79.988 65.9765 80.06 65.5445 80.108C65.1205 80.164 64.6885 80.204 64.2485 80.228C63.8165 80.252 63.4085 80.264 63.0245 80.264ZM72.0245 80.264C71.6245 80.264 71.2805 80.256 70.9925 80.24C70.7045 80.224 70.5205 80.208 70.4405 80.192C70.0245 80.104 69.7285 80.02 69.5525 79.94C69.3845 79.852 69.3005 79.78 69.3005 79.724C69.3005 79.668 69.3525 79.624 69.4565 79.592C69.5605 79.552 69.6805 79.532 69.8165 79.532C69.8885 79.532 69.9605 79.54 70.0325 79.556C70.1045 79.564 70.1765 79.576 70.2485 79.592C70.3285 79.616 70.4285 79.632 70.5485 79.64C70.6765 79.648 70.8205 79.652 70.9805 79.652C71.3005 79.652 71.6645 79.636 72.0725 79.604C72.4805 79.564 72.8925 79.508 73.3085 79.436C73.7325 79.364 74.1245 79.284 74.4845 79.196C74.8445 79.1 75.1325 78.996 75.3485 78.884C75.5725 78.772 75.6845 78.652 75.6845 78.524C75.6845 78.468 75.6525 78.408 75.5885 78.344C75.4605 78.216 75.3005 78.108 75.1085 78.02C74.9245 77.932 74.6925 77.836 74.4125 77.732C74.1405 77.62 73.8045 77.48 73.4045 77.312C73.0125 77.136 72.5445 76.904 72.0005 76.616C71.6645 76.432 71.3725 76.244 71.1245 76.052C70.8765 75.86 70.7525 75.644 70.7525 75.404C70.7525 75.276 70.7925 75.144 70.8725 75.008C70.9605 74.864 71.1005 74.712 71.2925 74.552C71.7485 74.168 72.2525 73.864 72.8045 73.64C73.3565 73.416 73.9165 73.256 74.4845 73.16C75.0525 73.064 75.5845 73.016 76.0805 73.016C76.6485 73.016 77.1365 73.064 77.5445 73.16C77.9605 73.248 78.2245 73.36 78.3365 73.496C78.4165 73.584 78.4565 73.724 78.4565 73.916C78.4565 74.108 78.4205 74.316 78.3485 74.54C78.2765 74.756 78.1885 74.944 78.0845 75.104C77.9885 75.264 77.8965 75.348 77.8085 75.356C77.6085 75.364 77.4805 75.312 77.4245 75.2C77.3685 75.08 77.3405 74.932 77.3405 74.756C77.3405 74.66 77.3445 74.56 77.3525 74.456C77.3605 74.352 77.3645 74.252 77.3645 74.156C77.3645 73.996 77.3445 73.856 77.3045 73.736C77.2725 73.616 77.1925 73.528 77.0645 73.472C76.8405 73.376 76.5525 73.328 76.2005 73.328C75.8165 73.328 75.4045 73.384 74.9645 73.496C74.5325 73.608 74.1445 73.768 73.8005 73.976C73.6565 74.064 73.4925 74.192 73.3085 74.36C73.1325 74.52 72.9765 74.708 72.8405 74.924C72.7045 75.132 72.6365 75.356 72.6365 75.596C72.6365 75.804 72.7045 76.02 72.8405 76.244C72.9845 76.468 73.2285 76.688 73.5725 76.904C73.8605 77.08 74.1685 77.24 74.4965 77.384C74.8325 77.528 75.1525 77.664 75.4565 77.792C75.7685 77.912 76.0365 78.028 76.2605 78.14C76.4845 78.252 76.6325 78.368 76.7045 78.488C76.8085 78.648 76.8605 78.804 76.8605 78.956C76.8605 79.172 76.7565 79.356 76.5485 79.508C76.3405 79.66 76.0605 79.788 75.7085 79.892C75.3645 79.988 74.9765 80.06 74.5445 80.108C74.1205 80.164 73.6885 80.204 73.2485 80.228C72.8165 80.252 72.4085 80.264 72.0245 80.264Z" fill="white"/>
<path d="M77.7764 58C77.7764 60.9455 80.1642 63.3333 83.1098 63.3333C86.0553 63.3333 88.4431 60.9455 88.4431 58C88.4431 55.0545 86.0553 52.6667 83.1098 52.6667C80.1642 52.6667 77.7764 55.0545 77.7764 58ZM105.494 81.3896C105.433 80.8407 104.938 80.4451 104.39 80.5061C103.841 80.5671 103.445 81.0615 103.506 81.6104L104.5 81.5L105.494 81.3896ZM83.1098 58L82.132 58.2095C82.7352 61.0247 83.2137 63.0621 83.3103 66.0078C83.4073 68.9664 83.1179 72.8706 82.1214 79.3479L83.1098 79.5L84.0981 79.6521C85.1016 73.1294 85.4122 69.0836 85.3092 65.9422C85.2058 62.7879 84.6843 60.5753 84.0876 57.7905L83.1098 58ZM83.1098 79.5L82.1214 79.3479C81.8497 81.1139 82.0054 82.6332 82.5584 83.9024C83.1145 85.1784 84.039 86.1249 85.1712 86.7914C87.3914 88.0986 90.4291 88.347 93.3413 88.0576C96.2821 87.7653 99.2743 86.907 101.525 85.8135C102.646 85.2686 103.633 84.6414 104.338 83.9573C105.016 83.3002 105.608 82.4164 105.494 81.3896L104.5 81.5L103.506 81.6104C103.517 81.7086 103.471 82.0123 102.946 82.5212C102.449 83.0031 101.667 83.5204 100.65 84.0146C98.6243 84.9992 95.8627 85.7972 93.1435 86.0674C90.3956 86.3405 87.867 86.0577 86.1859 85.0679C85.3674 84.5861 84.7576 83.9427 84.3919 83.1035C84.0232 82.2574 83.8698 81.1361 84.0981 79.6521L83.1098 79.5Z" fill="#F97316"/>
</svg>
